Coordinates
version=1
nRows=12
nColumns=24
inDegrees=yes

Units are S.I. units (second, meters, Newtons, ...)
Angles are in degrees.

endheader
time	pelvis_tilt	pelvis_list	pelvis_rotation	pelvis_tx	pelvis_ty	pelvis_tz	hip_flexion_r	hip_adduction_r	hip_rotation_r	knee_angle_r	ankle_angle_r	subtalar_angle_r	mtp_angle_r	hip_flexion_l	hip_adduction_l	hip_rotation_l	knee_angle_l	ankle_angle_l	subtalar_angle_l	mtp_angle_l	lumbar_extension	lumbar_bending	lumbar_rotation
      0.71000000	    -13.40662151	     -0.37421781	     -0.48525332	      0.06234801	      0.95044458	     -0.01004322	     36.42274866	      0.55244943	     -1.61872030	     -7.35539363	     -3.63251578	      0.00000000	      0.00000000	      6.34527123	      4.25057212	      5.29222874	    -15.66465624	     15.11136483	      0.00000000	      0.00000000	      7.67486440	     -0.18327447	     -4.51960494
      0.72000000	    -13.45369048	     -0.47058326	     -0.32696890	      0.06283664	      0.94945579	     -0.00896236	     36.47220430	      0.75582535	     -1.34666130	     -7.94703369	     -3.99915301	      0.00000000	      0.00000000	      5.91409002	      4.08594200	      5.40572017	    -15.74533669	     15.12340610	      0.00000000	      0.00000000	      7.73939382	     -0.12059164	     -4.64124446
      0.73000000	    -13.49381014	     -0.55725265	     -0.21189293	      0.06349834	      0.94851155	     -0.00778158	     36.49683126	      0.98305316	     -1.06501196	     -8.59365679	     -4.45120366	      0.00000000	      0.00000000	      5.46485349	      3.91617557	      5.47886871	    -15.81640519	     15.10179556	      0.00000000	      0.00000000	      7.82609793	     -0.05457183	     -4.72586237
      0.74000000	    -13.52503560	     -0.64474586	     -0.14676881	      0.06430113	      0.94765522	     -0.00655327	     36.50164608	      1.23183784	     -0.76897659	     -9.29026109	     -4.97647586	      0.00000000	      0.00000000	      5.00620439	      3.73914569	      5.53557647	    -15.90205412	     15.02821103	      0.00000000	      0.00000000	      7.91901899	      0.02446944	     -4.76601747
      0.75000000	    -13.55040836	     -0.73107965	     -0.12539631	      0.06523967	      0.94691264	     -0.00525053	     36.48365709	      1.50219340	     -0.45615559	    -10.00788077	     -5.53245413	      0.00000000	      0.00000000	      4.55031740	      3.55527974	      5.56778062	    -16.01211364	     14.88954965	      0.00000000	      0.00000000	      8.02479061	      0.11431012	     -4.77120822
      0.76000000	    -13.50465054	     -0.78150049	     -0.38375021	      0.06641304	      0.94646425	     -0.00356934	     36.35043534	      1.89751919	      0.09275278	    -10.62398226	     -6.54914453	      0.00000000	      0.00000000	      3.93652941	      3.37159339	      5.20478310	    -15.96189107	     14.46775764	      0.00000000	      0.00000000	      8.07510776	      0.21241220	     -4.46372767
      0.77000000	    -13.52904112	     -0.91782748	     -0.32787141	      0.06758581	      0.94603406	     -0.00228768	     36.30270459	      2.17881098	      0.45220611	    -11.39449388	     -6.85856649	      0.00000000	      0.00000000	      3.53549752	      3.13730352	      5.31464973	    -16.17991976	     14.23261328	      0.00000000	      0.00000000	      8.21531095	      0.35663408	     -4.56597839
      0.78000000	    -13.53323746	     -1.07916019	     -0.37803562	      0.06882586	      0.94581328	     -0.00091481	     36.27869886	      2.53543935	      0.86086062	    -12.28008465	     -7.17149107	      0.00000000	      0.00000000	      3.14695307	      2.87376845	      5.38448349	    -16.45985275	     13.83810102	      0.00000000	      0.00000000	      8.33581006	      0.56378204	     -4.54381344
      0.79000000	    -13.52348023	     -1.18413574	     -0.69573986	      0.07029991	      0.94583676	      0.00100267	     36.24319367	      3.01423969	      1.58517310	    -13.21069780	     -7.26668456	      0.00000000	      0.00000000	      2.69485726	      2.61106584	      4.87617737	    -16.62235512	     12.94588008	      0.00000000	      0.00000000	      8.47339929	      0.71570742	     -4.21577529
      0.80000000	    -13.49038831	     -1.32724180	     -0.90538402	      0.07181697	      0.94607618	      0.00259127	     36.17566660	      3.44393694	      2.21248957	    -14.18704242	     -7.10784317	      0.00000000	      0.00000000	      2.29473941	      2.35397028	      4.72921982	    -16.93618905	     12.18024813	      0.00000000	      0.00000000	      8.59067853	      0.93476573	     -4.07013559
      0.81000000	    -13.46721078	     -1.55195451	     -0.95925081	      0.07332697	      0.94652302	      0.00402639	     36.08246443	      3.85153106	      2.67655517	    -15.11649602	     -7.12525431	      0.00000000	      0.00000000	      2.00646694	      2.02525935	      4.88974546	    -17.42428188	     11.61053955	      0.00000000	      0.00000000	      8.72251081	      1.20588643	     -4.08991723
      0.82000000	    -13.41646427	     -1.81415494	     -1.11573383	      0.07489312	      0.94719768	      0.00564122	     35.96073512	      4.35624526	      3.18702055	    -16.11305134	     -6.79882812	      0.00000000	      0.00000000	      1.80069027	      1.63555748	      4.80711145	    -18.09217780	     10.61337939	      0.00000000	      0.00000000	      8.81792028	      1.53428912	     -3.97155166
